<?xml version="1.0" encoding="UTF-8" standalone="no"?>
<!-- Created with Inkscape (http://www.inkscape.org/) -->

<svg
   version="1.1"
   id="svg2"
   xml:space="preserve"
   width="2009.333"
   height="1560.218"
   viewBox="0 0 2009.333 1560.218"
   xmlns="http://www.w3.org/2000/svg"
   xmlns:svg="http://www.w3.org/2000/svg"><defs
     id="defs6"><clipPath
       clipPathUnits="userSpaceOnUse"
       id="clipPath40"><path
         d="M 0,2000 H 2000 V 0 H 0 Z"
         id="path38" /></clipPath><clipPath
       clipPathUnits="userSpaceOnUse"
       id="clipPath84"><path
         d="M 0,2000 H 2000 V 0 H 0 Z"
         id="path82" /></clipPath><clipPath
       clipPathUnits="userSpaceOnUse"
       id="clipPath148"><path
         d="M 0,2000 H 2000 V 0 H 0 Z"
         id="path146" /></clipPath></defs><g
     id="g8"
     transform="matrix(1.3333333,0,0,-1.3333333,0,2666.6667)"><g
       id="g1191"
       transform="translate(-251.0001,445)"><g
         id="g10"
         transform="translate(398.5,1229.5)"><path
           d="m 0,0 v 117 l 275,75 189,-76 V 2 L 274,62 Z"
           style="fill:#000000;fill-opacity:1;fill-rule:nonzero;stroke:none"
           id="path12" /></g><g
         id="g14"
         transform="translate(399,1084)"><path
           d="m 0,0 v 136 l 273,52 190,-52 V 0 L 274,48 Z"
           style="fill:#000000;fill-opacity:1;fill-rule:nonzero;stroke:none"
           id="path16" /></g><g
         id="g18"
         transform="translate(399,944)"><path
           d="m 0,0 v 129 l 273,38 190,-38 V 2 L 272,42 Z"
           style="fill:#000000;fill-opacity:1;fill-rule:nonzero;stroke:none"
           id="path20" /></g><g
         id="g22"
         transform="translate(399,807)"><path
           d="m 0,0 v 130 l 273,25 190,-25 V 26 L 407,11 274,40 Z"
           style="fill:#000000;fill-opacity:1;fill-rule:nonzero;stroke:none"
           id="path24" /></g><g
         id="g26"
         transform="translate(399,716)"><path
           d="m 0,0 v 80 l 273,27 97,-14 z"
           style="fill:#000000;fill-opacity:1;fill-rule:nonzero;stroke:none"
           id="path28" /></g><g
         id="g30"
         transform="translate(876,1184)"><path
           d="m 0,0 v 162 l 164,32 112,-31 V 0 L 164,28 Z"
           style="fill:#000000;fill-opacity:1;fill-rule:nonzero;stroke:none"
           id="path32" /></g><g
         id="g34"><g
           id="g36"
           clip-path="url(#clipPath40)"><g
             id="g42"
             transform="translate(876,1015)"><path
               d="M 0,0 165,25 276,2 V 152 L 163,174 0,150 C 0,150 -0.5,0.5 0,0"
               style="fill:#000000;fill-opacity:1;fill-rule:nonzero;stroke:none"
               id="path44" /></g><g
             id="g46"
             transform="translate(876,852)"><path
               d="M 0,0 168,25 276,0 V 146 L 162,161 0,144 Z"
               style="fill:#000000;fill-opacity:1;fill-rule:nonzero;stroke:none"
               id="path48" /></g><g
             id="g50"
             transform="translate(1169,1234)"><path
               d="M 0,0 258,58 449,-4 V 112 L 257,188 0,116 C 0,116 0.5,0 0,0"
               style="fill:#000000;fill-opacity:1;fill-rule:nonzero;stroke:none"
               id="path52" /></g><g
             id="g54"
             transform="translate(1169,1087)"><path
               d="M 0,0 256,45 448,-3 V 132 L 256,185 0,135 C 0,135 0.75,0.75 0,0"
               style="fill:#000000;fill-opacity:1;fill-rule:nonzero;stroke:none"
               id="path56" /></g><g
             id="g58"
             transform="translate(1169,947)"><path
               d="M 0,0 258,38 449,-2 V 126 L 255,165 0,128 C 0,128 -1.25,1.25 0,0"
               style="fill:#000000;fill-opacity:1;fill-rule:nonzero;stroke:none"
               id="path60" /></g><g
             id="g62"
             transform="translate(1169,842)"><path
               d="M 0,0 77,-22 257,4 448,-35 V 94 L 256,120 0,96 C 0,96 -0.75,0.75 0,0"
               style="fill:#000000;fill-opacity:1;fill-rule:nonzero;stroke:none"
               id="path64" /></g><g
             id="g66"
             transform="translate(1286,809)"><path
               d="m 0,0 332,-92 v 78 L 140,14 Z"
               style="fill:#000000;fill-opacity:1;fill-rule:nonzero;stroke:none"
               id="path68" /></g><g
             id="g70"
             transform="translate(251,662)"><path
               d="M 0,0 786,90 1507,-2 790,198 Z"
               style="fill:#000000;fill-opacity:1;fill-rule:nonzero;stroke:none"
               id="path72" /></g><g
             id="g74"
             transform="translate(718,1417)"><path
               d="m 0,0 143,-56 181,41 110,-38 116,31 V 48 L 322,138 -1,47 C -1,47 -1.5,-1.5 0,0"
               style="fill:#000000;fill-opacity:1;fill-rule:nonzero;stroke:none"
               id="path76" /></g></g></g><g
         id="g78"><g
           id="g80"
           clip-path="url(#clipPath84)"><g
             id="g86"
             transform="translate(495.4844,640.5322)"><path
               d="m 0,0 c 6.372,-6.227 9.561,-14.975 9.561,-26.238 v -5.782 c 0,-7.709 -1.411,-15.379 -4.225,-23.012 -2.817,-7.637 -7.858,-17.382 -15.12,-29.239 l -26.237,-42.025 H 9.561 v -22.235 h -72.487 v 20.011 l 34.909,56.255 c 5.337,8.45 9.006,15.787 11.007,22.013 2.001,6.226 3.002,12.598 3.002,19.122 v 3.113 c 0,10.374 -4.374,15.565 -13.119,15.565 -4.447,0 -7.748,-1.484 -9.894,-4.447 -2.151,-2.967 -3.225,-7.636 -3.225,-14.008 v -7.782 l -22.68,1.111 v 10.673 c 0,11.413 3.186,20.307 9.562,26.682 6.371,6.372 15.265,9.561 26.682,9.561 C -15.27,9.338 -6.375,6.226 0,0"
               style="fill:#000000;fill-opacity:1;fill-rule:nonzero;stroke:none"
               id="path88" /></g><g
             id="g90"
             transform="translate(585.2026,639.9756)"><path
               d="m 0,0 c 6.448,-6.598 9.672,-15.752 9.672,-27.46 v -14.008 l -22.68,-1.112 v 12.674 c 0,12.007 -4.447,18.01 -13.341,18.01 -4.301,0 -7.598,-1.333 -9.895,-4.001 -2.299,-2.669 -3.446,-6.598 -3.446,-11.786 v -84.938 c 0,-5.191 1.147,-9.116 3.446,-11.784 2.297,-2.668 5.594,-4.002 9.895,-4.002 8.894,0 13.341,6.003 13.341,18.01 v 17.343 l 22.68,-1.112 v -18.677 c 0,-11.712 -3.224,-20.866 -9.672,-27.461 -6.448,-6.597 -15.454,-9.894 -27.016,-9.894 -11.416,0 -20.31,3.259 -26.682,9.783 -6.375,6.521 -9.561,15.711 -9.561,27.572 v 85.383 c 0,11.857 3.186,21.047 9.561,27.571 6.372,6.522 15.266,9.784 26.682,9.784 C -15.454,9.895 -6.448,6.595 0,0"
               style="fill:#000000;fill-opacity:1;fill-rule:nonzero;stroke:none"
               id="path92" /></g><g
             id="g94"
             transform="translate(680.6987,625.8564)"><path
               d="m 0,0 v -47.583 h 9.561 c 5.632,0 9.784,1.557 12.452,4.669 2.668,3.113 4.002,7.929 4.002,14.453 v 9.339 c 0,6.521 -1.334,11.34 -4.002,14.453 C 19.345,-1.557 15.193,0 9.561,0 Z m 39.579,11.674 c 6.67,-6.747 10.005,-16.492 10.005,-29.239 v -12.453 c 0,-12.75 -3.335,-22.495 -10.005,-29.239 -6.671,-6.747 -16.381,-10.116 -29.128,-10.116 H 0 v -64.482 H -23.569 V 21.791 h 34.02 c 12.747,0 22.457,-3.374 29.128,-10.117"
               style="fill:#000000;fill-opacity:1;fill-rule:nonzero;stroke:none"
               id="path96" /></g><g
             id="g98"
             transform="translate(771.1953,625.8564)"><path
               d="m 0,0 v -46.249 h 9.561 c 5.632,0 9.784,1.557 12.452,4.669 2.668,3.113 4.002,7.929 4.002,14.453 v 8.005 c 0,6.521 -1.334,11.34 -4.002,14.453 C 19.345,-1.557 15.193,0 9.561,0 Z M 29.573,-133.855 10.896,-68.039 H 0 v -65.816 H -23.569 V 21.791 h 34.02 c 12.747,0 22.457,-3.374 29.128,-10.117 6.67,-6.747 10.005,-16.492 10.005,-29.239 v -11.119 c 0,-16.454 -5.558,-27.87 -16.676,-34.242 l 21.568,-70.929 z"
               style="fill:#000000;fill-opacity:1;fill-rule:nonzero;stroke:none"
               id="path100" /></g><g
             id="g102"
             transform="translate(867.3628,623.5215)"><path
               d="m 0,0 c -2.446,-3.04 -3.669,-7.448 -3.669,-13.229 v -80.936 c 0,-5.781 1.223,-10.193 3.669,-13.231 2.446,-3.04 6.038,-4.557 10.784,-4.557 4.742,0 8.338,1.517 10.784,4.557 2.446,3.038 3.669,7.45 3.669,13.231 v 80.936 C 25.237,-7.448 24.014,-3.04 21.568,0 19.122,3.037 15.526,4.559 10.784,4.559 6.038,4.559 2.446,3.037 0,0 M 38.689,15.787 C 45.433,8.745 48.806,-0.854 48.806,-13.007 v -81.381 c 0,-12.156 -3.373,-21.756 -10.117,-28.795 -6.747,-7.042 -16.047,-10.561 -27.905,-10.561 -11.861,0 -21.161,3.519 -27.905,10.561 -6.747,7.039 -10.117,16.639 -10.117,28.795 v 81.381 c 0,12.153 3.37,21.752 10.117,28.794 6.744,7.039 16.044,10.562 27.905,10.562 11.858,0 21.158,-3.523 27.905,-10.562"
               style="fill:#000000;fill-opacity:1;fill-rule:nonzero;stroke:none"
               id="path104" /></g><g
             id="g106"
             transform="translate(962.6382,625.8564)"><path
               d="m 0,0 v -47.583 h 9.561 c 5.632,0 9.784,1.557 12.452,4.669 2.668,3.113 4.002,7.929 4.002,14.453 v 9.339 c 0,6.521 -1.334,11.34 -4.002,14.453 C 19.345,-1.557 15.193,0 9.561,0 Z m 39.579,11.674 c 6.67,-6.747 10.005,-16.492 10.005,-29.239 v -12.453 c 0,-12.75 -3.335,-22.495 -10.005,-29.239 -6.671,-6.747 -16.381,-10.116 -29.128,-10.116 H 0 v -64.482 H -23.569 V 21.791 h 34.02 c 12.747,0 22.457,-3.374 29.128,-10.117"
               style="fill:#000000;fill-opacity:1;fill-rule:nonzero;stroke:none"
               id="path108" /></g><path
             d="m 1053.135,492.001 h -23.569 v 155.646 h 23.569 z"
             style="fill:#000000;fill-opacity:1;fill-rule:nonzero;stroke:none"
             id="path110" /><g
             id="g112"
             transform="translate(1144.7402,625.8564)"><path
               d="m 0,0 h -42.691 v -44.025 h 34.464 v -21.79 h -34.464 v -46.25 H 0 v -21.79 H -66.261 V 21.791 H 0 Z"
               style="fill:#000000;fill-opacity:1;fill-rule:nonzero;stroke:none"
               id="path114" /></g><g
             id="g116"
             transform="translate(1188.3184,625.8564)"><path
               d="m 0,0 v -112.065 h 9.339 c 5.632,0 9.783,1.556 12.452,4.669 2.668,3.113 4.002,7.928 4.002,14.454 v 73.82 c 0,6.521 -1.334,11.34 -4.002,14.453 C 19.122,-1.557 14.971,0 9.339,0 Z M 39.356,11.674 C 46.027,4.927 49.362,-4.818 49.362,-17.565 v -76.934 c 0,-12.751 -3.335,-22.496 -10.006,-29.239 -6.67,-6.747 -16.38,-10.117 -29.127,-10.117 H -23.569 V 21.791 h 33.798 c 12.747,0 22.457,-3.374 29.127,-10.117"
               style="fill:#000000;fill-opacity:1;fill-rule:nonzero;stroke:none"
               id="path118" /></g><g
             id="g120"
             transform="translate(1292.3809,614.2939)"><path
               d="M 0,0 -9.562,-65.594 H 10.229 L 0.667,0 Z M 42.469,-122.293 H 18.455 l -5.114,35.354 h -26.015 l -5.114,-35.354 h -23.569 l 26.904,155.647 h 30.017 z"
               style="fill:#000000;fill-opacity:1;fill-rule:nonzero;stroke:none"
               id="path122" /></g><g
             id="g124"
             transform="translate(1375.3164,625.8564)"><path
               d="m 0,0 v -112.065 h 9.339 c 5.632,0 9.783,1.556 12.452,4.669 2.668,3.113 4.002,7.928 4.002,14.454 v 73.82 c 0,6.521 -1.334,11.34 -4.002,14.453 C 19.122,-1.557 14.971,0 9.339,0 Z M 39.356,11.674 C 46.027,4.927 49.362,-4.818 49.362,-17.565 v -76.934 c 0,-12.751 -3.335,-22.496 -10.006,-29.239 -6.67,-6.747 -16.38,-10.117 -29.127,-10.117 H -23.569 V 21.791 h 33.798 c 12.747,0 22.457,-3.374 29.127,-10.117"
               style="fill:#000000;fill-opacity:1;fill-rule:nonzero;stroke:none"
               id="path126" /></g><g
             id="g128"
             transform="translate(1513.8418,625.8564)"><path
               d="m 0,0 h -42.691 v -44.025 h 34.464 v -21.79 h -34.464 v -46.25 H 0 v -21.79 H -66.261 V 21.791 H 0 Z"
               style="fill:#000000;fill-opacity:1;fill-rule:nonzero;stroke:none"
               id="path130" /></g><g
             id="g132"
             transform="translate(1587.2158,640.7539)"><path
               d="m 0,0 c 6.076,-6.08 9.116,-14.675 9.116,-25.793 v -4.002 l -22.679,-2.224 v 5.782 c 0,4.447 -1.04,7.817 -3.114,10.117 -2.077,2.296 -5.041,3.446 -8.893,3.446 -3.857,0 -6.821,-1.15 -8.895,-3.446 -2.077,-2.3 -3.112,-5.67 -3.112,-10.117 v -2.001 c 0,-4.746 1.407,-9.377 4.224,-13.898 2.814,-4.523 8.005,-9.97 15.565,-16.343 10.818,-9.192 18.455,-17.492 22.902,-24.903 4.448,-7.414 6.67,-15.714 6.67,-24.903 v -7.782 c 0,-11.118 -3.15,-19.716 -9.449,-25.793 -6.303,-6.08 -15.308,-9.117 -27.016,-9.117 -11.712,0 -20.716,3.037 -27.015,9.117 -6.303,6.077 -9.45,14.675 -9.45,25.793 v 10.45 l 22.679,2.223 v -11.117 c 0,-9.783 4.447,-14.675 13.341,-14.675 8.895,0 13.342,4.892 13.342,14.675 v 5.115 c 0,5.037 -1.485,9.818 -4.447,14.341 -2.967,4.52 -8.304,10.04 -16.01,16.565 -10.673,9.04 -18.159,17.232 -22.457,24.57 -4.302,7.338 -6.448,15.6 -6.448,24.792 v 3.335 c 0,11.118 3.036,19.713 9.116,25.793 6.076,6.077 14.748,9.116 26.015,9.116 C -14.752,9.116 -6.08,6.077 0,0"
               style="fill:#000000;fill-opacity:1;fill-rule:nonzero;stroke:none"
               id="path134" /></g></g></g><path
         d="m 429.879,462.667 h 10.406 v -77.83 h -10.406 z"
         style="fill:#000000;fill-opacity:1;fill-rule:nonzero;stroke:none"
         id="path136" /><g
         id="g138"
         transform="translate(471.6113,425.0527)"><path
           d="m 0,0 v 37.614 h 10.406 v -77.83 H 0 v 15.501 l -11.165,35.446 v -50.947 h -10.406 v 77.83 h 10.406 z"
           style="fill:#000000;fill-opacity:1;fill-rule:nonzero;stroke:none"
           id="path140" /></g><g
         id="g142"><g
           id="g144"
           clip-path="url(#clipPath148)"><g
             id="g150"
             transform="translate(502.1787,394.2676)"><path
               d="m 0,0 h 7.805 c 2.745,0 4.119,1.155 4.119,3.469 v 49.863 c 0,3.757 -1.555,5.637 -4.661,5.637 H 0 Z m -10.406,-9.431 v 77.83 H 7.696 c 9.756,0 14.634,-4.986 14.634,-14.959 V 1.843 c 0,-7.517 -4.157,-11.274 -12.466,-11.274 z"
               style="fill:#000000;fill-opacity:1;fill-rule:nonzero;stroke:none"
               id="path152" /></g><g
             id="g154"
             transform="translate(567.542,462.667)"><path
               d="M 0,0 V -63.088 C 0,-72.917 -4.192,-77.83 -12.574,-77.83 h -8.78 c -8.312,0 -12.466,4.949 -12.466,14.851 V 0 h 10.406 v -63.305 c 0,-3.397 1.518,-5.094 4.553,-5.094 h 4.227 c 2.819,0 4.228,1.697 4.228,5.094 V 0 Z"
               style="fill:#000000;fill-opacity:1;fill-rule:nonzero;stroke:none"
               id="path156" /></g><g
             id="g158"
             transform="translate(597.2422,441.7461)"><path
               d="m 0,0 v 6.829 c 0,3.107 -1.518,4.661 -4.553,4.661 h -1.626 c -2.964,0 -4.444,-1.554 -4.444,-4.661 V -6.07 c 0,-1.447 0.288,-2.422 0.867,-2.927 0.578,-0.507 1.518,-1.157 2.819,-1.951 l 9.864,-5.312 c 2.168,-1.229 3.702,-2.186 4.607,-2.873 0.903,-0.687 1.607,-1.517 2.113,-2.493 0.505,-0.976 0.759,-2.837 0.759,-5.582 v -16.585 c 0,-8.745 -4.192,-13.116 -12.574,-13.116 h -6.395 c -8.312,0 -12.466,4.769 -12.466,14.308 v 3.903 h 10.406 v -4.228 c 0,-3.035 1.553,-4.553 4.661,-4.553 h 1.843 c 2.745,0 4.119,1.518 4.119,4.553 v 13.225 c 0,1.444 -0.29,2.42 -0.867,2.927 -0.579,0.504 -1.518,1.155 -2.819,1.951 l -9.864,5.528 c -2.168,1.155 -3.74,2.131 -4.715,2.927 -0.976,0.794 -1.68,1.824 -2.114,3.089 -0.433,1.263 -0.65,2.908 -0.65,4.932 V 7.588 c 0,8.889 4.154,13.333 12.466,13.333 h 6.503 c 8.31,0 12.466,-4.444 12.466,-13.333 V 0 Z"
               style="fill:#000000;fill-opacity:1;fill-rule:nonzero;stroke:none"
               id="path160" /></g><g
             id="g162"
             transform="translate(632.9038,453.2363)"><path
               d="M 0,0 V -68.399 H -10.406 V 0 h -9.973 V 9.431 H 9.973 V 0 Z"
               style="fill:#000000;fill-opacity:1;fill-rule:nonzero;stroke:none"
               id="path164" /></g><g
             id="g166"
             transform="translate(659.2432,425.1611)"><path
               d="m 0,0 h 6.829 c 3.107,0 4.661,1.878 4.661,5.637 v 16.801 c 0,3.757 -1.554,5.637 -4.661,5.637 H 0 Z M -10.406,37.506 H 9.973 c 7.948,0 11.923,-4.444 11.923,-13.333 V 4.986 c 0,-6.794 -2.059,-11.093 -6.178,-12.899 L 22.98,-40.324 H 13.116 L 6.287,-8.889 H 0 v -31.435 h -10.406 z"
               style="fill:#000000;fill-opacity:1;fill-rule:nonzero;stroke:none"
               id="path168" /></g><path
             d="m 689.811,462.667 h 10.406 v -77.83 h -10.406 z"
             style="fill:#000000;fill-opacity:1;fill-rule:nonzero;stroke:none"
             id="path170" /><g
             id="g172"
             transform="translate(731.7593,422.7764)"><path
               d="m 0,0 v 25.907 c 0,3.035 -1.518,4.553 -4.553,4.553 h -2.818 c -3.035,0 -4.553,-1.518 -4.553,-4.553 V 0 Z M -11.924,-37.939 H -22.33 v 64.497 c 0,8.888 4.155,13.333 12.466,13.333 h 7.804 c 8.31,0 12.466,-4.445 12.466,-13.333 V -37.939 H 0 v 28.508 h -11.924 z"
               style="fill:#000000;fill-opacity:1;fill-rule:nonzero;stroke:none"
               id="path174" /></g><g
             id="g176"
             transform="translate(776.0928,384.8369)"><path
               d="m 0,0 h -24.715 v 77.83 h 10.406 V 9.431 H 0 Z"
               style="fill:#000000;fill-opacity:1;fill-rule:nonzero;stroke:none"
               id="path178" /></g><g
             id="g180"
             transform="translate(830.5063,403.0479)"><path
               d="m 0,0 v -4.986 c 0,-8.818 -4.157,-13.225 -12.466,-13.225 h -6.721 c -8.311,0 -12.465,4.407 -12.465,13.225 v 51.381 c 0,8.815 4.154,13.224 12.465,13.224 h 6.721 C -4.157,59.619 0,55.21 0,46.395 v -8.781 h -10.406 v 8.022 c 0,3.035 -1.555,4.552 -4.661,4.552 h -2.06 c -2.747,0 -4.119,-1.517 -4.119,-4.552 V -4.228 c 0,-3.035 1.372,-4.552 4.119,-4.552 h 2.602 c 2.745,0 4.119,1.517 4.119,4.552 V 0 Z"
               style="fill:#000000;fill-opacity:1;fill-rule:nonzero;stroke:none"
               id="path182" /></g><g
             id="g184"
             transform="translate(853.1616,394.2676)"><path
               d="m 0,0 h 5.312 c 2.745,0 4.119,1.518 4.119,4.553 v 49.863 c 0,3.035 -1.555,4.553 -4.661,4.553 h -4.878 c -3.036,0 -4.553,-1.518 -4.553,-4.553 V 4.553 C -4.661,1.518 -3.108,0 0,0 m -2.493,-9.431 c -8.384,0 -12.574,4.408 -12.574,13.225 v 51.272 c 0,8.889 4.154,13.333 12.465,13.333 h 9.973 c 8.309,0 12.466,-4.444 12.466,-13.333 V 3.794 c 0,-8.817 -4.192,-13.225 -12.574,-13.225 z"
               style="fill:#000000;fill-opacity:1;fill-rule:nonzero;stroke:none"
               id="path186" /></g><g
             id="g188"
             transform="translate(903.3491,416.9229)"><path
               d="m 0,0 9.647,45.744 h 11.491 v -77.83 H 10.731 l 1.084,50.947 -7.804,-36.855 h -8.022 l -7.804,36.855 1.084,-50.947 h -10.407 v 77.83 h 11.491 z"
               style="fill:#000000;fill-opacity:1;fill-rule:nonzero;stroke:none"
               id="path190" /></g><g
             id="g192"
             transform="translate(934.2422,384.8369)"><path
               d="M 0,0 V 77.83 H 25.799 V 68.399 H 10.406 V 44.769 H 24.064 V 35.338 H 10.406 V 9.431 H 25.799 V 0 Z"
               style="fill:#000000;fill-opacity:1;fill-rule:nonzero;stroke:none"
               id="path194" /></g><g
             id="g196"
             transform="translate(977.9253,425.1611)"><path
               d="m 0,0 h 6.829 c 3.107,0 4.661,1.878 4.661,5.637 v 16.801 c 0,3.757 -1.554,5.637 -4.661,5.637 H 0 Z M -10.406,37.506 H 9.973 c 7.948,0 11.923,-4.444 11.923,-13.333 V 4.986 c 0,-6.794 -2.059,-11.093 -6.178,-12.899 L 22.98,-40.324 H 13.116 L 6.287,-8.889 H 0 v -31.435 h -10.406 z"
               style="fill:#000000;fill-opacity:1;fill-rule:nonzero;stroke:none"
               id="path198" /></g><g
             id="g200"
             transform="translate(1039.6035,403.0479)"><path
               d="m 0,0 v -4.986 c 0,-8.818 -4.156,-13.225 -12.466,-13.225 h -6.721 c -8.311,0 -12.465,4.407 -12.465,13.225 v 51.381 c 0,8.815 4.154,13.224 12.465,13.224 h 6.721 C -4.156,59.619 0,55.21 0,46.395 v -8.781 h -10.406 v 8.022 c 0,3.035 -1.555,4.552 -4.661,4.552 h -2.06 c -2.747,0 -4.119,-1.517 -4.119,-4.552 V -4.228 c 0,-3.035 1.372,-4.552 4.119,-4.552 h 2.602 c 2.745,0 4.119,1.517 4.119,4.552 V 0 Z"
               style="fill:#000000;fill-opacity:1;fill-rule:nonzero;stroke:none"
               id="path202" /></g><path
             d="m 1047.732,462.667 h 10.406 v -77.83 h -10.406 z"
             style="fill:#000000;fill-opacity:1;fill-rule:nonzero;stroke:none"
             id="path204" /><g
             id="g206"
             transform="translate(1089.6816,422.7764)"><path
               d="m 0,0 v 25.907 c 0,3.035 -1.518,4.553 -4.553,4.553 h -2.818 c -3.035,0 -4.553,-1.518 -4.553,-4.553 V 0 Z M -11.924,-37.939 H -22.33 v 64.497 c 0,8.888 4.154,13.333 12.466,13.333 h 7.804 c 8.31,0 12.466,-4.445 12.466,-13.333 V -37.939 H 0 v 28.508 h -11.924 z"
               style="fill:#000000;fill-opacity:1;fill-rule:nonzero;stroke:none"
               id="path208" /></g><g
             id="g210"
             transform="translate(1134.0156,384.8369)"><path
               d="m 0,0 h -24.715 v 77.83 h 10.406 V 9.431 H 0 Z"
               style="fill:#000000;fill-opacity:1;fill-rule:nonzero;stroke:none"
               id="path212" /></g><g
             id="g214"
             transform="translate(1180.5156,384.8369)"><path
               d="M 0,0 V 35.338 H -12.791 V 0 h -10.406 v 77.83 h 10.406 V 44.769 H 0 V 77.83 H 10.406 V 0 Z"
               style="fill:#000000;fill-opacity:1;fill-rule:nonzero;stroke:none"
               id="path216" /></g><g
             id="g218"
             transform="translate(1222.4648,422.7764)"><path
               d="m 0,0 v 25.907 c 0,3.035 -1.518,4.553 -4.553,4.553 h -2.818 c -3.035,0 -4.553,-1.518 -4.553,-4.553 V 0 Z M -11.924,-37.939 H -22.33 v 64.497 c 0,8.888 4.154,13.333 12.466,13.333 h 7.804 c 8.31,0 12.466,-4.445 12.466,-13.333 V -37.939 H 0 v 28.508 h -11.924 z"
               style="fill:#000000;fill-opacity:1;fill-rule:nonzero;stroke:none"
               id="path220" /></g><g
             id="g222"
             transform="translate(1252.4902,394.2676)"><path
               d="m 0,0 h 7.805 c 2.745,0 4.119,1.119 4.119,3.36 v 17.236 c 0,3.685 -2.06,5.528 -6.179,5.528 H 0 Z m 0,35.555 h 4.878 c 3.974,0 5.962,1.878 5.962,5.636 v 12.141 c 0,3.757 -1.555,5.637 -4.661,5.637 H 0 Z m 13.767,-4.987 c 5.708,-1.59 8.563,-4.552 8.563,-8.888 V 2.168 c 0,-7.733 -3.939,-11.599 -11.815,-11.599 h -20.921 v 77.83 H 7.371 c 9.249,0 13.875,-4.698 13.875,-14.091 V 39.349 c 0,-4.482 -2.493,-7.228 -7.479,-8.239 z"
               style="fill:#000000;fill-opacity:1;fill-rule:nonzero;stroke:none"
               id="path224" /></g><path
             d="m 1283.49,462.667 h 10.406 v -77.83 h -10.406 z"
             style="fill:#000000;fill-opacity:1;fill-rule:nonzero;stroke:none"
             id="path226" /><g
             id="g228"
             transform="translate(1320.2363,453.2363)"><path
               d="M 0,0 V -68.399 H -10.406 V 0 h -9.973 V 9.431 H 9.973 V 0 Z"
               style="fill:#000000;fill-opacity:1;fill-rule:nonzero;stroke:none"
               id="path230" /></g><g
             id="g232"
             transform="translate(1357.958,422.7764)"><path
               d="m 0,0 v 25.907 c 0,3.035 -1.518,4.553 -4.553,4.553 h -2.818 c -3.035,0 -4.553,-1.518 -4.553,-4.553 V 0 Z M -11.924,-37.939 H -22.33 v 64.497 c 0,8.888 4.154,13.333 12.466,13.333 h 7.804 c 8.31,0 12.466,-4.445 12.466,-13.333 V -37.939 H 0 v 28.508 h -11.924 z"
               style="fill:#000000;fill-opacity:1;fill-rule:nonzero;stroke:none"
               id="path234" /></g><g
             id="g236"
             transform="translate(1408.6865,403.0479)"><path
               d="m 0,0 v -4.986 c 0,-8.818 -4.156,-13.225 -12.466,-13.225 h -6.721 c -8.311,0 -12.465,4.407 -12.465,13.225 v 51.381 c 0,8.815 4.154,13.224 12.465,13.224 h 6.721 C -4.156,59.619 0,55.21 0,46.395 v -8.781 h -10.406 v 8.022 c 0,3.035 -1.555,4.552 -4.661,4.552 h -2.06 c -2.747,0 -4.119,-1.517 -4.119,-4.552 V -4.228 c 0,-3.035 1.372,-4.552 4.119,-4.552 h 2.602 c 2.745,0 4.119,1.517 4.119,4.552 V 0 Z"
               style="fill:#000000;fill-opacity:1;fill-rule:nonzero;stroke:none"
               id="path238" /></g><path
             d="m 1416.816,462.667 h 10.406 v -77.83 h -10.406 z"
             style="fill:#000000;fill-opacity:1;fill-rule:nonzero;stroke:none"
             id="path240" /><g
             id="g242"
             transform="translate(1451.5029,394.2676)"><path
               d="m 0,0 h 5.312 c 2.745,0 4.119,1.518 4.119,4.553 v 49.863 c 0,3.035 -1.555,4.553 -4.661,4.553 h -4.878 c -3.036,0 -4.553,-1.518 -4.553,-4.553 V 4.553 C -4.661,1.518 -3.108,0 0,0 m -2.493,-9.431 c -8.384,0 -12.574,4.408 -12.574,13.225 v 51.272 c 0,8.889 4.154,13.333 12.465,13.333 h 9.973 c 8.31,0 12.466,-4.444 12.466,-13.333 V 3.794 c 0,-8.817 -4.192,-13.225 -12.574,-13.225 z"
               style="fill:#000000;fill-opacity:1;fill-rule:nonzero;stroke:none"
               id="path244" /></g><g
             id="g246"
             transform="translate(1502.124,425.0527)"><path
               d="m 0,0 v 37.614 h 10.406 v -77.83 H 0 v 15.501 l -11.165,35.446 v -50.947 h -10.406 v 77.83 h 10.406 z"
               style="fill:#000000;fill-opacity:1;fill-rule:nonzero;stroke:none"
               id="path248" /></g><g
             id="g250"
             transform="translate(1544.0732,422.7764)"><path
               d="m 0,0 v 25.907 c 0,3.035 -1.518,4.553 -4.553,4.553 h -2.818 c -3.035,0 -4.553,-1.518 -4.553,-4.553 V 0 Z M -11.924,-37.939 H -22.33 v 64.497 c 0,8.888 4.154,13.333 12.466,13.333 h 7.804 c 8.31,0 12.466,-4.445 12.466,-13.333 V -37.939 H 0 v 28.508 h -11.924 z"
               style="fill:#000000;fill-opacity:1;fill-rule:nonzero;stroke:none"
               id="path252" /></g><g
             id="g254"
             transform="translate(1588.4072,384.8369)"><path
               d="m 0,0 h -24.715 v 77.83 h 10.406 V 9.431 H 0 Z"
               style="fill:#000000;fill-opacity:1;fill-rule:nonzero;stroke:none"
               id="path256" /></g></g></g></g></g></svg>
